<?xml version="1.0" encoding="UTF-8" standalone="no"?>
<!-- Created with Inkscape (http://www.inkscape.org/) -->

<svg
   width="168.41504mm"
   height="46.663124mm"
   viewBox="0 0 168.41504 46.663124"
   version="1.1"
   id="svg1141"
   inkscape:version="1.2.2 (732a01da63, 2022-12-09)"
   sodipodi:docname="fatrop-new-paths.svg"
   xml:space="preserve"
   inkscape:export-filename="fatrop-new.png"
   inkscape:export-xdpi="400"
   inkscape:export-ydpi="400"
   xmlns:inkscape="http://www.inkscape.org/namespaces/inkscape"
   xmlns:sodipodi="http://sodipodi.sourceforge.net/DTD/sodipodi-0.dtd"
   xmlns="http://www.w3.org/2000/svg"
   xmlns:svg="http://www.w3.org/2000/svg"><sodipodi:namedview
     id="namedview1143"
     pagecolor="#505050"
     bordercolor="#eeeeee"
     borderopacity="1"
     inkscape:showpageshadow="0"
     inkscape:pageopacity="0"
     inkscape:pagecheckerboard="0"
     inkscape:deskcolor="#505050"
     inkscape:document-units="mm"
     showgrid="false"
     inkscape:zoom="1.4711376"
     inkscape:cx="323.21926"
     inkscape:cy="112.49797"
     inkscape:window-width="1920"
     inkscape:window-height="1121"
     inkscape:window-x="3831"
     inkscape:window-y="-9"
     inkscape:window-maximized="1"
     inkscape:current-layer="layer1" /><defs
     id="defs1138"><inkscape:path-effect
       effect="skeletal"
       id="path-effect1315"
       is_visible="true"
       lpeversion="1"
       pattern="M 0,4.9921382 C 0,2.2364779 2.2364779,0 4.9921382,0 c 2.7556604,0 4.9921383,2.2364779 4.9921383,4.9921382 0,2.7556604 -2.2364779,4.9921383 -4.9921383,4.9921383 C 2.2364779,9.9842765 0,7.7477986 0,4.9921382 Z"
       copytype="single_stretched"
       prop_scale="0.19162672"
       scale_y_rel="false"
       spacing="0"
       normal_offset="0"
       tang_offset="0"
       prop_units="false"
       vertical_pattern="false"
       hide_knot="false"
       fuse_tolerance="0" /><inkscape:path-effect
       effect="bspline"
       id="path-effect1311"
       is_visible="true"
       lpeversion="1"
       weight="33.333333"
       steps="2"
       helper_size="0"
       apply_no_weight="true"
       apply_with_weight="true"
       only_selected="false" /><inkscape:path-effect
       effect="skeletal"
       id="path-effect4516"
       is_visible="true"
       lpeversion="1"
       pattern="M 0,4.9921382 C 0,2.2364779 2.2364779,0 4.9921382,0 c 2.7556604,0 4.9921383,2.2364779 4.9921383,4.9921382 0,2.7556604 -2.2364779,4.9921383 -4.9921383,4.9921383 C 2.2364779,9.9842765 0,7.7477986 0,4.9921382 Z"
       copytype="single_stretched"
       prop_scale="0.19162672"
       scale_y_rel="false"
       spacing="0"
       normal_offset="0"
       tang_offset="0"
       prop_units="false"
       vertical_pattern="false"
       hide_knot="false"
       fuse_tolerance="0" /><inkscape:path-effect
       effect="bspline"
       id="path-effect4512"
       is_visible="true"
       lpeversion="1"
       weight="33.333333"
       steps="2"
       helper_size="0"
       apply_no_weight="true"
       apply_with_weight="true"
       only_selected="false" /><inkscape:path-effect
       effect="skeletal"
       id="path-effect4505"
       is_visible="true"
       lpeversion="1"
       pattern="M 0,4.9921382 C 0,2.2364779 2.2364779,0 4.9921382,0 c 2.7556604,0 4.9921383,2.2364779 4.9921383,4.9921382 0,2.7556604 -2.2364779,4.9921383 -4.9921383,4.9921383 C 2.2364779,9.9842765 0,7.7477986 0,4.9921382 Z"
       copytype="single_stretched"
       prop_scale="0.19162672"
       scale_y_rel="false"
       spacing="0"
       normal_offset="0"
       tang_offset="0"
       prop_units="false"
       vertical_pattern="false"
       hide_knot="false"
       fuse_tolerance="0" /><inkscape:path-effect
       effect="bspline"
       id="path-effect4501"
       is_visible="true"
       lpeversion="1"
       weight="33.333333"
       steps="2"
       helper_size="0"
       apply_no_weight="true"
       apply_with_weight="true"
       only_selected="false" /><inkscape:path-effect
       effect="skeletal"
       id="path-effect3654"
       is_visible="true"
       lpeversion="1"
       pattern="M 0,4.9921382 C 0,2.2364779 2.2364779,0 4.9921382,0 c 2.7556604,0 4.9921383,2.2364779 4.9921383,4.9921382 0,2.7556604 -2.2364779,4.9921383 -4.9921383,4.9921383 C 2.2364779,9.9842765 0,7.7477986 0,4.9921382 Z"
       copytype="single_stretched"
       prop_scale="0.19162672"
       scale_y_rel="false"
       spacing="0"
       normal_offset="0"
       tang_offset="0"
       prop_units="false"
       vertical_pattern="false"
       hide_knot="false"
       fuse_tolerance="0" /><inkscape:path-effect
       effect="bspline"
       id="path-effect3652"
       is_visible="true"
       lpeversion="1"
       weight="33.333333"
       steps="2"
       helper_size="0"
       apply_no_weight="true"
       apply_with_weight="true"
       only_selected="false" /><inkscape:path-effect
       effect="skeletal"
       id="path-effect3648"
       is_visible="true"
       lpeversion="1"
       pattern="M 0,4.9921382 C 0,2.2364779 2.2364779,0 4.9921382,0 c 2.7556604,0 4.9921383,2.2364779 4.9921383,4.9921382 0,2.7556604 -2.2364779,4.9921383 -4.9921383,4.9921383 C 2.2364779,9.9842765 0,7.7477986 0,4.9921382 Z"
       copytype="single_stretched"
       prop_scale="1"
       scale_y_rel="false"
       spacing="0"
       normal_offset="0"
       tang_offset="0"
       prop_units="false"
       vertical_pattern="false"
       hide_knot="false"
       fuse_tolerance="0" /><inkscape:path-effect
       effect="powerstroke"
       id="path-effect3640"
       is_visible="true"
       lpeversion="1"
       offset_points="8,4.9921382"
       not_jump="false"
       sort_points="true"
       interpolator_type="CubicBezierJohan"
       interpolator_beta="0.2"
       start_linecap_type="zerowidth"
       linejoin_type="extrp_arc"
       miter_limit="4"
       scale_width="1"
       end_linecap_type="zerowidth" /><inkscape:path-effect
       effect="bspline"
       id="path-effect3638"
       is_visible="true"
       lpeversion="1"
       weight="33.333333"
       steps="2"
       helper_size="0"
       apply_no_weight="true"
       apply_with_weight="true"
       only_selected="false" /><inkscape:path-effect
       effect="powerstroke"
       id="path-effect3522"
       is_visible="true"
       lpeversion="1"
       offset_points="4,4.9921382"
       not_jump="false"
       sort_points="true"
       interpolator_type="CubicBezierJohan"
       interpolator_beta="0.2"
       start_linecap_type="zerowidth"
       linejoin_type="extrp_arc"
       miter_limit="4"
       scale_width="1"
       end_linecap_type="zerowidth" /><inkscape:path-effect
       effect="bspline"
       id="path-effect3520"
       is_visible="true"
       lpeversion="1"
       weight="33.333333"
       steps="2"
       helper_size="0"
       apply_no_weight="true"
       apply_with_weight="true"
       only_selected="false" /><inkscape:path-effect
       effect="fill_between_many"
       method="bsplinespiro"
       linkedpaths="#path3518,0,1"
       id="path-effect3524"
       is_visible="true"
       lpeversion="0"
       join="true"
       close="true"
       autoreverse="true" /><inkscape:path-effect
       effect="fill_between_many"
       method="bsplinespiro"
       linkedpaths="#path3636,0,1"
       id="path-effect3642"
       join="true"
       close="true"
       autoreverse="true"
       is_visible="true"
       lpeversion="0" /></defs><g
     inkscape:label="Layer 1"
     inkscape:groupmode="layer"
     id="layer1"
     transform="matrix(1,0,-0.14888219,1,-11.336058,-49.14228)"><path
       id="rect1774"
       style="fill:#ffffff;stroke-width:0.87093"
       transform="matrix(1,0,0.1472591,0.98909795,0,0)"
       d="M 5.126677,49.683937 H 179.60184 c 0.0827,0 0.14926,0.06657 0.14926,0.14926 v 46.878936 c 0,0.08269 -0.0666,0.14926 -0.14926,0.14926 H 5.126677 c -0.08269,0 -0.1492595,-0.06657 -0.1492595,-0.14926 V 49.833197 c 0,-0.08269 0.06657,-0.14926 0.1492595,-0.14926 z" /><g
       aria-label="FATROP"
       transform="scale(0.89985869,1.1112856)"
       id="text1264-8-5"
       style="font-size:33.3323px;font-family:Arial;-inkscape-font-specification:Arial;display:inline;fill:#c5c5c5;stroke-width:0.76488"><path
         d="m 47.345397,78.907967 4.99659,-23.859937 h 16.6987 l -0.846328,3.987507 H 56.410871 l -1.20439,5.728989 h 11.555631 l -0.830053,3.987506 h -11.55563 l -2.11582,10.155935 z"
         style="font-style:italic;font-weight:bold"
         id="path314" /><path
         d="m 81.556575,73.634693 h -9.456087 l -2.864494,5.273274 H 64.190577 L 77.682997,55.04803 h 5.452305 l 3.873577,23.859937 h -4.654803 z m -0.602195,-3.971231 -1.383421,-9.602566 -5.76154,9.602566 z"
         style="font-style:italic;font-weight:bold"
         id="path316" /><path
         d="m 97.913489,78.907967 h -4.915212 l 4.166537,-19.87243 h -6.99848 l 0.830052,-3.987507 h 18.798244 l -0.83005,3.987507 h -6.90083 z"
         style="font-style:italic;font-weight:bold"
         id="path318" /><path
         d="m 112.90326,78.907967 h -4.91521 l 4.99659,-23.859937 h 10.59537 q 2.73429,0 4.24792,0.569644 1.5299,0.553368 2.4576,2.050718 0.94398,1.497349 0.94398,3.629444 0,3.043526 -1.82286,5.029141 -1.82286,1.96934 -5.5174,2.441331 0.94398,0.846327 1.77403,2.229748 1.64383,2.799392 3.662,7.909911 H 124.052 q -0.63474,-2.018167 -2.49015,-6.298633 -1.00909,-2.311126 -2.14837,-3.108627 -0.69985,-0.471991 -2.44134,-0.471991 h -2.00189 z m 2.81567,-13.459869 h 2.60408 q 3.95496,0 5.24073,-0.47199 1.30204,-0.471991 2.03444,-1.481074 0.7324,-1.009083 0.7324,-2.11582 0,-1.302043 -1.05791,-1.953064 -0.65102,-0.390613 -2.81567,-0.390613 h -5.40348 z"
         style="font-style:italic;font-weight:bold"
         id="path320" /><path
         d="m 133.50809,69.549533 q 0,-2.115819 0.63475,-4.459497 0.83005,-3.141178 2.5227,-5.452304 1.70893,-2.311126 4.29675,-3.64572 2.58781,-1.35087 5.89174,-1.35087 4.42695,0 7.14496,2.750566 2.73429,2.750565 2.73429,7.29144 0,3.775924 -1.77403,7.307716 -1.77404,3.531791 -4.81756,5.436029 -3.04353,1.904238 -6.88455,1.904238 -3.33649,0 -5.59879,-1.513625 -2.2623,-1.513625 -3.20628,-3.743374 -0.94398,-2.246024 -0.94398,-4.524599 z m 4.85011,-0.09765 q 0,2.457606 1.49735,4.117711 1.49735,1.660104 3.93868,1.660104 1.98561,0 3.80847,-1.302042 1.83914,-1.318319 3.02725,-3.971231 1.20439,-2.669188 1.20439,-5.191896 0,-2.815668 -1.51362,-4.410671 -1.51363,-1.611278 -3.8573,-1.611278 -3.5969,0 -5.8592,3.352761 -2.24602,3.35276 -2.24602,7.356542 z"
         style="font-style:italic;font-weight:bold"
         id="path322" /><path
         d="m 162.78778,78.907967 h -4.91522 l 4.99659,-23.859937 h 9.70022 q 2.58781,0 4.08516,0.618471 1.51363,0.602195 2.39251,2.018166 0.87888,1.399696 0.87888,3.352761 0,1.806584 -0.69985,3.515516 -0.69985,1.708931 -1.72521,2.73429 -1.00908,1.025359 -2.18092,1.562451 -1.17184,0.520817 -3.15746,0.797501 -1.15556,0.162756 -4.32929,0.162756 h -3.14118 z m 2.71801,-13.05298 h 1.51363 q 3.88985,0 5.19189,-0.488267 1.30204,-0.488266 2.05072,-1.562451 0.74867,-1.074185 0.74867,-2.359953 0,-0.862603 -0.39061,-1.415971 -0.37434,-0.553369 -1.07418,-0.797502 -0.68358,-0.260408 -3.07608,-0.260408 h -3.51552 z"
         style="font-style:italic;font-weight:bold"
         id="path324" /></g><g
       aria-label="FATROP"
       transform="scale(0.89985869,1.1112856)"
       id="text1264"
       style="font-size:33.3323px;font-family:Arial;-inkscape-font-specification:Arial;display:inline;fill:#7d7d7d;stroke-width:0.76488"
       inkscape:label="text1264"><path
         d="m 48.154406,78.907967 4.99659,-23.859937 h 16.6987 l -0.846328,3.987507 H 57.21988 l -1.204389,5.728989 h 11.55563 l -0.830052,3.987506 H 55.185438 l -2.11582,10.155935 z"
         style="font-style:italic;font-weight:bold"
         id="path327" /><path
         d="m 82.365584,73.634693 h -9.456086 l -2.864495,5.273274 H 64.999587 L 78.492006,55.04803 h 5.452305 l 3.873578,23.859937 h -4.654804 z m -0.602195,-3.971231 -1.38342,-9.602566 -5.76154,9.602566 z"
         style="font-style:italic;font-weight:bold"
         id="path329" /><path
         d="m 98.722499,78.907967 h -4.915212 l 4.166537,-19.87243 h -6.998481 l 0.830053,-3.987507 h 18.798244 l -0.83005,3.987507 h -6.90083 z"
         style="font-style:italic;font-weight:bold"
         id="path331" /><path
         d="m 113.71227,78.907967 h -4.91521 l 4.99659,-23.859937 h 10.59537 q 2.73429,0 4.24792,0.569644 1.5299,0.553368 2.4576,2.050718 0.94398,1.497349 0.94398,3.629444 0,3.043526 -1.82286,5.029141 -1.82286,1.96934 -5.5174,2.441331 0.94398,0.846327 1.77403,2.229748 1.64383,2.799392 3.662,7.909911 h -5.27328 q -0.63474,-2.018167 -2.49015,-6.298633 -1.00909,-2.311126 -2.14838,-3.108627 -0.69984,-0.471991 -2.44133,-0.471991 h -2.00189 z m 2.81567,-13.459869 h 2.60408 q 3.95496,0 5.24073,-0.47199 1.30204,-0.471991 2.03444,-1.481074 0.7324,-1.009083 0.7324,-2.11582 0,-1.302043 -1.05791,-1.953064 -0.65102,-0.390613 -2.81567,-0.390613 h -5.40348 z"
         style="font-style:italic;font-weight:bold"
         id="path333" /><path
         d="m 134.3171,69.549533 q 0,-2.115819 0.63474,-4.459497 0.83006,-3.141178 2.52271,-5.452304 1.70893,-2.311126 4.29674,-3.64572 2.58781,-1.35087 5.89175,-1.35087 4.42694,0 7.14496,2.750566 2.73429,2.750565 2.73429,7.29144 0,3.775924 -1.77403,7.307716 -1.77404,3.531791 -4.81756,5.436029 -3.04353,1.904238 -6.88455,1.904238 -3.33649,0 -5.59879,-1.513625 -2.2623,-1.513625 -3.20628,-3.743374 -0.94398,-2.246024 -0.94398,-4.524599 z m 4.85011,-0.09765 q 0,2.457606 1.49735,4.117711 1.49735,1.660104 3.93868,1.660104 1.98561,0 3.80847,-1.302042 1.83914,-1.318319 3.02725,-3.971231 1.20439,-2.669188 1.20439,-5.191896 0,-2.815668 -1.51362,-4.410671 -1.51363,-1.611278 -3.8573,-1.611278 -3.5969,0 -5.8592,3.352761 -2.24602,3.35276 -2.24602,7.356542 z"
         style="font-style:italic;font-weight:bold"
         id="path335" /><path
         d="m 163.59679,78.907967 h -4.91522 l 4.99659,-23.859937 h 9.70022 q 2.58781,0 4.08516,0.618471 1.51363,0.602195 2.39251,2.018166 0.87887,1.399696 0.87887,3.352761 0,1.806584 -0.69984,3.515516 -0.69985,1.708931 -1.72521,2.73429 -1.00908,1.025359 -2.18092,1.562451 -1.17184,0.520817 -3.15746,0.797501 -1.15556,0.162756 -4.32929,0.162756 h -3.14118 z m 2.71801,-13.05298 h 1.51362 q 3.88986,0 5.1919,-0.488267 1.30204,-0.488266 2.05072,-1.562451 0.74867,-1.074185 0.74867,-2.359953 0,-0.862603 -0.39061,-1.415971 -0.37434,-0.553369 -1.07419,-0.797502 -0.68357,-0.260408 -3.07607,-0.260408 h -3.51552 z"
         style="font-style:italic;font-weight:bold"
         id="path337" /></g><g
       aria-label="FATROP"
       transform="scale(0.89985869,1.1112856)"
       id="text1264-1"
       style="font-size:33.3323px;font-family:Arial;-inkscape-font-specification:Arial;display:inline;fill:#303030;stroke-width:0.76488"><path
         d="M 48.99092,78.907967 53.98751,55.04803 h 16.6987 l -0.846328,3.987507 H 58.056394 l -1.20439,5.728989 h 11.555631 l -0.830053,3.987506 h -11.55563 l -2.11582,10.155935 z"
         style="font-style:italic;font-weight:bold"
         id="path340" /><path
         d="m 83.202098,73.634693 h -9.456087 l -2.864494,5.273274 H 65.8361 L 79.32852,55.04803 h 5.452305 l 3.873577,23.859937 h -4.654803 z m -0.602195,-3.971231 -1.383421,-9.602566 -5.76154,9.602566 z"
         style="font-style:italic;font-weight:bold"
         id="path342" /><path
         d="M 99.559012,78.907967 H 94.6438 l 4.166537,-19.87243 h -6.99848 l 0.830052,-3.987507 h 18.798241 l -0.83005,3.987507 h -6.90083 z"
         style="font-style:italic;font-weight:bold"
         id="path344" /><path
         d="m 114.54878,78.907967 h -4.91521 l 4.99659,-23.859937 h 10.59538 q 2.73429,0 4.24791,0.569644 1.5299,0.553368 2.45761,2.050718 0.94398,1.497349 0.94398,3.629444 0,3.043526 -1.82286,5.029141 -1.82286,1.96934 -5.51741,2.441331 0.94398,0.846327 1.77403,2.229748 1.64383,2.799392 3.662,7.909911 h -5.27327 q -0.63475,-2.018167 -2.49016,-6.298633 -1.00908,-2.311126 -2.14837,-3.108627 -0.69985,-0.471991 -2.44133,-0.471991 h -2.00189 z m 2.81567,-13.459869 h 2.60409 q 3.95495,0 5.24072,-0.47199 1.30204,-0.471991 2.03444,-1.481074 0.7324,-1.009083 0.7324,-2.11582 0,-1.302043 -1.05791,-1.953064 -0.65102,-0.390613 -2.81567,-0.390613 h -5.40347 z"
         style="font-style:italic;font-weight:bold"
         id="path346" /><path
         d="m 135.15361,69.549533 q 0,-2.115819 0.63475,-4.459497 0.83005,-3.141178 2.52271,-5.452304 1.70893,-2.311126 4.29674,-3.64572 2.58781,-1.35087 5.89174,-1.35087 4.42695,0 7.14496,2.750566 2.73429,2.750565 2.73429,7.29144 0,3.775924 -1.77403,7.307716 -1.77403,3.531791 -4.81756,5.436029 -3.04352,1.904238 -6.88455,1.904238 -3.33649,0 -5.59879,-1.513625 -2.2623,-1.513625 -3.20628,-3.743374 -0.94398,-2.246024 -0.94398,-4.524599 z m 4.85011,-0.09765 q 0,2.457606 1.49735,4.117711 1.49735,1.660104 3.93868,1.660104 1.98562,0 3.80848,-1.302042 1.83913,-1.318319 3.02725,-3.971231 1.20439,-2.669188 1.20439,-5.191896 0,-2.815668 -1.51363,-4.410671 -1.51362,-1.611278 -3.8573,-1.611278 -3.59689,0 -5.85919,3.352761 -2.24603,3.35276 -2.24603,7.356542 z"
         style="font-style:italic;font-weight:bold"
         id="path348" /><path
         d="m 164.4333,78.907967 h -4.91521 l 4.99659,-23.859937 h 9.70022 q 2.58781,0 4.08516,0.618471 1.51362,0.602195 2.3925,2.018166 0.87888,1.399696 0.87888,3.352761 0,1.806584 -0.69985,3.515516 -0.69985,1.708931 -1.72521,2.73429 -1.00908,1.025359 -2.18092,1.562451 -1.17184,0.520817 -3.15745,0.797501 -1.15557,0.162756 -4.3293,0.162756 h -3.14117 z m 2.71801,-13.05298 h 1.51363 q 3.88985,0 5.19189,-0.488267 1.30205,-0.488266 2.05072,-1.562451 0.74868,-1.074185 0.74868,-2.359953 0,-0.862603 -0.39062,-1.415971 -0.37433,-0.553369 -1.07418,-0.797502 -0.68357,-0.260408 -3.07608,-0.260408 h -3.51551 z"
         style="font-style:italic;font-weight:bold"
         id="path350" /></g><g
       aria-label="FATROP"
       transform="scale(0.89985869,1.1112856)"
       id="text1264-8"
       style="font-size:33.3323px;font-family:Arial;-inkscape-font-specification:Arial;display:inline;stroke-width:0.76488"><path
         d="m 49.911311,78.907967 4.99659,-23.859937 h 16.6987 l -0.846328,3.987507 H 58.976785 l -1.20439,5.728989 h 11.555631 l -0.830052,3.987506 H 56.942343 l -2.11582,10.155935 z"
         style="font-style:italic;font-weight:bold"
         id="path353" /><path
         d="m 84.122489,73.634693 h -9.456087 l -2.864494,5.273274 H 66.756492 L 80.248911,55.04803 h 5.452305 l 3.873577,23.859937 H 84.91999 Z m -0.602195,-3.971231 -1.383421,-9.602566 -5.76154,9.602566 z"
         style="font-style:italic;font-weight:bold"
         id="path355" /><path
         d="m 100.4794,78.907967 h -4.915209 l 4.166538,-19.87243 H 92.732248 L 93.5623,55.04803 h 18.79824 l -0.83005,3.987507 h -6.90083 z"
         style="font-style:italic;font-weight:bold"
         id="path357" /><path
         d="m 115.46917,78.907967 h -4.91521 l 4.99659,-23.859937 h 10.59538 q 2.73429,0 4.24791,0.569644 1.5299,0.553368 2.45761,2.050718 0.94398,1.497349 0.94398,3.629444 0,3.043526 -1.82286,5.029141 -1.82286,1.96934 -5.51741,2.441331 0.94398,0.846327 1.77404,2.229748 1.64382,2.799392 3.66199,7.909911 h -5.27327 q -0.63475,-2.018167 -2.49016,-6.298633 -1.00908,-2.311126 -2.14837,-3.108627 -0.69985,-0.471991 -2.44133,-0.471991 h -2.00189 z m 2.81567,-13.459869 h 2.60409 q 3.95495,0 5.24072,-0.47199 1.30204,-0.471991 2.03444,-1.481074 0.7324,-1.009083 0.7324,-2.11582 0,-1.302043 -1.05791,-1.953064 -0.65102,-0.390613 -2.81567,-0.390613 h -5.40347 z"
         style="font-style:italic;font-weight:bold"
         id="path359" /><path
         d="m 136.074,69.549533 q 0,-2.115819 0.63475,-4.459497 0.83005,-3.141178 2.52271,-5.452304 1.70893,-2.311126 4.29674,-3.64572 2.58781,-1.35087 5.89174,-1.35087 4.42695,0 7.14496,2.750566 2.73429,2.750565 2.73429,7.29144 0,3.775924 -1.77403,7.307716 -1.77403,3.531791 -4.81756,5.436029 -3.04352,1.904238 -6.88455,1.904238 -3.33649,0 -5.59878,-1.513625 -2.2623,-1.513625 -3.20629,-3.743374 -0.94398,-2.246024 -0.94398,-4.524599 z m 4.85011,-0.09765 q 0,2.457606 1.49735,4.117711 1.49735,1.660104 3.93868,1.660104 1.98562,0 3.80848,-1.302042 1.83913,-1.318319 3.02725,-3.971231 1.20439,-2.669188 1.20439,-5.191896 0,-2.815668 -1.51363,-4.410671 -1.51362,-1.611278 -3.8573,-1.611278 -3.59689,0 -5.85919,3.352761 -2.24603,3.35276 -2.24603,7.356542 z"
         style="font-style:italic;font-weight:bold"
         id="path361" /><path
         d="m 165.35369,78.907967 h -4.91521 l 4.99659,-23.859937 h 9.70022 q 2.58781,0 4.08516,0.618471 1.51362,0.602195 2.3925,2.018166 0.87888,1.399696 0.87888,3.352761 0,1.806584 -0.69985,3.515516 -0.69985,1.708931 -1.72521,2.73429 -1.00908,1.025359 -2.18092,1.562451 -1.17184,0.520817 -3.15745,0.797501 -1.15556,0.162756 -4.32929,0.162756 h -3.14118 z m 2.71801,-13.05298 h 1.51363 q 3.88985,0 5.1919,-0.488267 1.30204,-0.488266 2.05071,-1.562451 0.74868,-1.074185 0.74868,-2.359953 0,-0.862603 -0.39062,-1.415971 -0.37433,-0.553369 -1.07418,-0.797502 -0.68357,-0.260408 -3.07608,-0.260408 h -3.51551 z"
         style="font-style:italic;font-weight:bold"
         id="path363" /></g><rect
       style="display:none;fill:#ffffff;fill-opacity:1;stroke:none;stroke-width:2.93405;stroke-miterlimit:3.7;stroke-dasharray:none;stroke-opacity:1"
       id="rect3246"
       width="135.44334"
       height="10.973979"
       x="30.527796"
       y="55.543018"
       transform="matrix(1,0,0.14725909,0.98909795,0,0)" /><path
       style="display:inline;fill:#595959;fill-opacity:1;stroke:#ffffff;stroke-width:5.4;stroke-miterlimit:3.7;stroke-dasharray:none;stroke-opacity:1"
       d="m 28.460922,66.389889 c -0.02528,-0.156593 6.288169,-1.39827 17.546297,-3.18199 10.150845,-1.608283 28.575852,-4.322341 47.331069,-4.314666 0,10e-7 10e-6,0 10e-6,0 10.742042,0.0071 21.324202,0.773734 33.672972,1.822587 8.81064,0.746765 18.85595,1.822314 28.3709,1.874905 5.97715,0.03059 12.14621,-0.43058 18.07477,-2.028071 4.2141,-0.804942 8.26928,-2.224112 12.39654,-3.769477 -0.003,0.0013 -0.044,0.02219 -0.0466,0.02352 -5.17418,2.611253 -10.24979,5.167685 -15.68738,6.852099 -3.07482,0.768119 -6.20259,1.166803 -9.29729,1.276745 -4.98845,0.175952 -9.9591,-0.196236 -14.70542,-0.622048 -8.19646,-0.732612 -16.09253,-1.65189 -23.68291,-2.258032 0,0 -1e-5,-10e-7 -1e-5,-10e-7 -10.65483,-0.850476 -20.32499,-1.202231 -29.626715,-0.903101 -18.182122,0.580248 -36.826527,3.785279 -46.600272,5.460677 -11.116508,1.905572 -17.389205,3.023097 -17.4191,2.868139 -0.0299,-0.154959 6.179952,-1.564709 17.260863,-3.730799 9.866022,-1.928605 28.251442,-5.377305 46.702246,-6.136963 9.368188,-0.383409 19.116698,-0.09914 29.817538,0.698668 0,0 1e-5,0 1e-5,0 7.63508,0.568987 15.54522,1.455447 23.71007,2.158939 4.72922,0.405898 9.62641,0.763144 14.47454,0.57844 2.97865,-0.112737 5.97541,-0.498209 8.90358,-1.235914 5.4919,-1.057114 10.72063,-3.006908 16.16667,-5.020692 -5.4e-4,2e-4 0.0496,-0.01834 0.0491,-0.01814 -3.88554,2.152041 -7.78596,4.18606 -11.92159,5.619736 -6.16276,1.644355 -12.49809,2.114957 -18.58162,2.061679 -9.65597,-0.08073 -19.72236,-1.194644 -28.51204,-1.985266 -12.35208,-1.108783 -22.83948,-1.942867 -33.526475,-2.042366 0,0 -9e-6,10e-7 -9e-6,10e-7 -18.49596,-0.176984 -37.131214,2.28436 -47.195594,3.641065 -11.281974,1.52084 -17.648813,2.466918 -17.67409,2.310325 z"
       id="path4508"
       sodipodi:nodetypes="cccccscc" /><path
       style="display:inline;fill:#00407a;fill-opacity:1;stroke:#00407a;stroke-width:0.459479;stroke-miterlimit:3.7;stroke-dasharray:none;stroke-opacity:1"
       d="m 29.177842,69.244261 c -0.03073,-0.160594 6.61689,-1.662979 18.432638,-3.92292 10.572697,-2.022188 30.049314,-5.56881 49.647656,-5.97232 10.352914,-0.209908 20.739254,0.421671 32.511624,1.416949 8.27899,0.698158 17.70173,1.76912 26.56717,1.822641 5.70975,0.03266 11.5846,-0.463784 17.23338,-2.024536 4.17357,-0.822002 8.18823,-2.240393 12.28317,-3.770898 -3.1e-4,1.52e-4 -0.0163,0.0082 -0.0166,0.0084 -5.18484,2.616619 -10.26913,5.17952 -15.7174,6.867191 -3.0811,0.769556 -6.21386,1.170313 -9.31109,1.296435 -5.02562,0.203801 -10.04123,-0.116266 -14.82925,-0.481458 -8.29471,-0.630206 -16.28716,-1.436147 -23.95911,-1.96466 0,0 -1e-5,0 -1e-5,0 -10.72796,-0.738688 -20.41645,-1.042116 -29.752921,-0.758181 -17.927672,0.541537 -36.295399,3.428374 -45.94217,4.940549 -10.960927,1.718174 -17.142264,2.723775 -17.16976,2.569499 -0.0275,-0.154276 6.096246,-1.450989 17.024699,-3.428655 9.751575,-1.764693 27.841877,-4.893536 46.033784,-5.61306 9.394428,-0.369651 19.155508,-0.13517 29.921598,0.548462 0,0 1e-5,10e-7 1e-5,10e-7 7.71111,0.489416 15.71541,1.261429 23.98095,1.862553 4.77352,0.345753 9.72062,0.651424 14.61315,0.439527 2.98726,-0.128898 5.99239,-0.516627 8.92727,-1.256155 5.50269,-1.059238 10.74054,-3.014424 16.19825,-5.032426 -7e-5,2.4e-5 0.0175,-0.0065 0.0175,-0.0065 -3.8491,2.135176 -7.7051,4.167205 -11.79638,5.618048 -5.87811,1.609237 -11.92414,2.116975 -17.75307,2.063355 -9.01403,-0.08019 -18.4591,-1.185901 -26.70745,-1.922588 -11.75585,-1.04736 -22.05259,-1.74289 -32.331705,-1.617865 -19.320614,0.228908 -39.02038,3.522879 -49.513107,5.286979 -11.849338,1.992181 -18.562054,3.192211 -18.592786,3.031617 z"
       id="path3650"
       sodipodi:nodetypes="cccccscc"
       transform="matrix(1.0010318,0,0.01599059,1.1084361,-1.0933792,-6.1600419)" /><g
       id="g930"
       transform="matrix(0.92092378,0,-0.0064395,0.87767147,10.369768,9.2585922)"
       style="stroke-width:1.1123"><path
         id="rect4571"
         style="stroke-width:3.51083;stroke-miterlimit:3.7"
         transform="matrix(1,0,0.14725908,0.98909795,0,0)"
         d="m 115.31275,68.468361 h 3.8 v 3.538578 h -3.8 z" /><path
         id="rect4571-3"
         style="stroke-width:3.27845;stroke-miterlimit:3.7"
         transform="matrix(1,0,0.14725908,0.98909795,0,0)"
         d="m 119.11275,72.006935 h 3.2 v 3.740782 h -3.2 z" /><path
         id="rect4571-3-2"
         style="stroke-width:3.27845;stroke-miterlimit:3.7"
         transform="matrix(1,0,0.14725908,0.98909795,0,0)"
         d="m 122.31275,75.747719 h 3.2 v 3.740782 h -3.2 z" /><path
         id="rect4571-3-2-3"
         style="stroke-width:3.27845;stroke-miterlimit:3.7"
         transform="matrix(1,0,0.14725909,0.98909795,0,0)"
         d="m 125.51275,79.488503 h 2.446 v 3.030033 h -2.446 z" /></g><path
       id="path4808"
       style="fill:#00407a;stroke:#00407a;stroke-width:0.48666;stroke-miterlimit:3.7"
       transform="matrix(1,0,0.14725909,0.98909795,0,0)"
       d="m 115.36161,62.473553 a 2.2,2.2242489 0 0 1 -2.2,2.224249 2.2,2.2242489 0 0 1 -2.2,-2.224249 2.2,2.2242489 0 0 1 2.2,-2.224249 2.2,2.2242489 0 0 1 2.2,2.224249 z" /><path
       id="path4808-9"
       style="fill:#00407a;stroke:#00407a;stroke-width:0.48666;stroke-miterlimit:3.7"
       transform="matrix(1,0,0.14725909,0.98909795,0,0)"
       d="m 93.84711,61.53117 a 2.2,2.2242489 0 0 1 -2.2,2.224249 2.2,2.2242489 0 0 1 -2.2,-2.224249 2.2,2.2242489 0 0 1 2.2,-2.224249 2.2,2.2242489 0 0 1 2.2,2.224249 z" /><path
       id="path4808-9-7"
       style="fill:#00407a;stroke:#00407a;stroke-width:0.48666;stroke-miterlimit:3.7"
       transform="matrix(1,0,0.14725909,0.98909795,0,0)"
       d="m 72.085323,62.611664 a 2.2,2.2242489 0 0 1 -2.2,2.224249 2.2,2.2242489 0 0 1 -2.2,-2.224249 2.2,2.2242489 0 0 1 2.2,-2.224249 2.2,2.2242489 0 0 1 2.2,2.224249 z" /><path
       id="path4808-9-7-3"
       style="fill:#00407a;stroke:#00407a;stroke-width:0.48666;stroke-miterlimit:3.7"
       transform="matrix(1,0,0.14725909,0.98909795,0,0)"
       d="m 51.582477,65.510468 a 2.2,2.2242489 0 0 1 -2.2,2.224248 2.2,2.2242489 0 0 1 -2.2,-2.224248 2.2,2.2242489 0 0 1 2.2,-2.224249 2.2,2.2242489 0 0 1 2.2,2.224249 z" /><path
       id="path4808-9-7-3-6"
       style="fill:#00407a;stroke:#00407a;stroke-width:0.48666;stroke-miterlimit:3.7"
       transform="matrix(1,0,0.14725909,0.98909795,0,0)"
       d="m 137.01097,64.541893 a 2.2,2.2242489 0 0 1 -2.2,2.224249 2.2,2.2242489 0 0 1 -2.2,-2.224249 2.2,2.2242489 0 0 1 2.2,-2.224249 2.2,2.2242489 0 0 1 2.2,2.224249 z" /><path
       id="path4808-9-7-3-6-0"
       style="fill:#00407a;stroke:#00407a;stroke-width:0.48666;stroke-miterlimit:3.7"
       transform="matrix(1,0,0.14725909,0.98909795,0,0)"
       d="m 159.51902,64.48864 a 2.2,2.2242489 0 0 1 -2.2,2.224249 2.2,2.2242489 0 0 1 -2.2,-2.224249 2.2,2.2242489 0 0 1 2.2,-2.224249 2.2,2.2242489 0 0 1 2.2,2.224249 z" /></g></svg>
